<?xml version="1.0" encoding="UTF-8"?>
<svg xmlns="http://www.w3.org/2000/svg" xmlns:xlink="http://www.w3.org/1999/xlink" width="16px" height="16px" viewBox="0 0 16 16" version="1.1">
<g id="surface1">
<path style=" stroke:none;fill-rule:nonzero;fill:#2e3436;fill-opacity:1;" d="M 6.382812 0.820312 C 6.101562 0.882812 5.929688 1.035156 5.871094 1.277344 C 5.839844 1.394531 5.84375 1.640625 5.875 1.769531 C 5.902344 1.878906 5.96875 2 6.046875 2.089844 L 6.101562 2.148438 L 6.101562 7.054688 L 6.054688 7.128906 C 6.03125 7.167969 6.011719 7.207031 6.011719 7.214844 C 6.011719 7.21875 6.007812 7.226562 6 7.226562 C 5.996094 7.226562 5.988281 7.234375 5.984375 7.246094 C 5.972656 7.273438 5.933594 7.347656 5.78125 7.601562 C 5.71875 7.707031 5.65625 7.820312 5.636719 7.855469 C 5.621094 7.886719 5.601562 7.914062 5.597656 7.914062 C 5.589844 7.914062 5.585938 7.917969 5.585938 7.925781 C 5.585938 7.9375 5.425781 8.226562 5.402344 8.257812 C 5.382812 8.28125 5.363281 8.320312 5.355469 8.335938 C 5.351562 8.347656 5.34375 8.363281 5.335938 8.375 C 5.332031 8.386719 5.300781 8.4375 5.269531 8.492188 C 5.238281 8.546875 5.203125 8.609375 5.1875 8.632812 C 5.175781 8.652344 5.152344 8.691406 5.140625 8.714844 C 5.09375 8.796875 5.082031 8.820312 5.074219 8.824219 C 5.070312 8.828125 5.058594 8.847656 5.050781 8.871094 C 5.042969 8.890625 5.027344 8.921875 5.015625 8.933594 C 5.003906 8.945312 4.980469 8.984375 4.960938 9.019531 C 4.859375 9.203125 4.832031 9.25 4.8125 9.269531 C 4.800781 9.285156 4.789062 9.300781 4.78125 9.3125 C 4.761719 9.359375 4.613281 9.613281 4.585938 9.65625 C 4.574219 9.675781 4.558594 9.703125 4.554688 9.710938 C 4.550781 9.722656 4.53125 9.753906 4.515625 9.777344 C 4.5 9.804688 4.46875 9.859375 4.449219 9.894531 C 4.425781 9.9375 4.40625 9.972656 4.402344 9.976562 C 4.398438 9.980469 4.382812 10 4.371094 10.023438 C 4.292969 10.175781 4.171875 10.382812 4.160156 10.386719 C 4.15625 10.386719 4.148438 10.394531 4.148438 10.402344 C 4.148438 10.410156 4.117188 10.46875 4.078125 10.535156 C 4.039062 10.601562 4 10.671875 3.988281 10.691406 C 3.976562 10.710938 3.960938 10.734375 3.957031 10.746094 C 3.949219 10.757812 3.917969 10.8125 3.890625 10.867188 C 3.839844 10.957031 3.789062 11.042969 3.742188 11.117188 C 3.734375 11.132812 3.710938 11.171875 3.691406 11.207031 C 3.671875 11.238281 3.617188 11.34375 3.5625 11.429688 C 3.511719 11.519531 3.453125 11.617188 3.4375 11.648438 C 3.421875 11.679688 3.40625 11.707031 3.398438 11.710938 C 3.394531 11.714844 3.386719 11.726562 3.382812 11.738281 C 3.371094 11.757812 3.363281 11.773438 3.269531 11.9375 C 3.199219 12.066406 3.183594 12.09375 3.171875 12.101562 C 3.171875 12.105469 3.160156 12.121094 3.148438 12.140625 C 3.078125 12.277344 3.046875 12.332031 3.019531 12.375 C 3 12.402344 2.988281 12.429688 2.988281 12.4375 C 2.988281 12.445312 2.984375 12.449219 2.976562 12.449219 C 2.972656 12.449219 2.957031 12.472656 2.941406 12.503906 C 2.925781 12.53125 2.898438 12.589844 2.878906 12.628906 C 2.859375 12.667969 2.839844 12.699219 2.835938 12.699219 C 2.828125 12.699219 2.824219 12.707031 2.824219 12.714844 C 2.824219 12.722656 2.800781 12.765625 2.769531 12.816406 C 2.742188 12.867188 2.691406 12.953125 2.664062 13.007812 C 2.632812 13.0625 2.605469 13.109375 2.597656 13.109375 C 2.59375 13.113281 2.585938 13.121094 2.585938 13.125 C 2.585938 13.132812 2.550781 13.199219 2.507812 13.273438 C 2.464844 13.347656 2.421875 13.421875 2.417969 13.4375 C 2.414062 13.449219 2.40625 13.460938 2.398438 13.460938 C 2.394531 13.460938 2.386719 13.472656 2.382812 13.484375 C 2.378906 13.496094 2.363281 13.523438 2.351562 13.542969 C 2.335938 13.5625 2.320312 13.59375 2.3125 13.609375 C 2.308594 13.621094 2.277344 13.675781 2.246094 13.730469 C 2.214844 13.785156 2.1875 13.832031 2.1875 13.839844 C 2.1875 13.84375 2.183594 13.851562 2.175781 13.851562 C 2.171875 13.851562 2.160156 13.863281 2.15625 13.878906 C 2.148438 13.894531 2.132812 13.925781 2.117188 13.953125 C 2.101562 13.980469 2.070312 14.03125 2.046875 14.070312 C 2.027344 14.109375 2.007812 14.144531 2 14.148438 C 1.996094 14.152344 1.984375 14.179688 1.96875 14.207031 C 1.953125 14.234375 1.9375 14.265625 1.929688 14.273438 C 1.917969 14.292969 1.871094 14.371094 1.820312 14.46875 C 1.769531 14.558594 1.761719 14.613281 1.765625 14.726562 C 1.773438 14.84375 1.785156 14.898438 1.808594 14.921875 C 1.816406 14.929688 1.824219 14.945312 1.824219 14.953125 C 1.824219 14.96875 1.851562 15.003906 1.902344 15.058594 C 1.949219 15.109375 1.972656 15.125 2.042969 15.160156 L 2.117188 15.195312 L 13.882812 15.195312 L 13.957031 15.160156 C 14.03125 15.125 14.175781 14.992188 14.175781 14.957031 C 14.175781 14.945312 14.183594 14.929688 14.191406 14.921875 C 14.246094 14.867188 14.25 14.582031 14.199219 14.507812 C 14.195312 14.5 14.167969 14.449219 14.136719 14.394531 C 14.109375 14.339844 14.078125 14.285156 14.070312 14.273438 C 14.0625 14.265625 14.046875 14.234375 14.03125 14.207031 C 14.015625 14.179688 14.003906 14.152344 14 14.148438 C 13.992188 14.144531 13.972656 14.109375 13.953125 14.070312 C 13.929688 14.03125 13.898438 13.980469 13.882812 13.953125 C 13.867188 13.925781 13.851562 13.894531 13.84375 13.878906 C 13.839844 13.863281 13.828125 13.851562 13.824219 13.851562 C 13.816406 13.851562 13.8125 13.84375 13.8125 13.839844 C 13.8125 13.832031 13.785156 13.785156 13.753906 13.730469 C 13.722656 13.675781 13.691406 13.621094 13.6875 13.609375 C 13.679688 13.59375 13.664062 13.5625 13.648438 13.542969 C 13.636719 13.523438 13.621094 13.496094 13.617188 13.484375 C 13.613281 13.472656 13.605469 13.460938 13.601562 13.460938 C 13.59375 13.460938 13.585938 13.449219 13.582031 13.4375 C 13.578125 13.421875 13.535156 13.347656 13.492188 13.273438 C 13.449219 13.199219 13.414062 13.132812 13.414062 13.125 C 13.414062 13.121094 13.40625 13.113281 13.402344 13.109375 C 13.394531 13.109375 13.367188 13.0625 13.335938 13.007812 C 13.308594 12.953125 13.257812 12.867188 13.230469 12.816406 C 13.199219 12.765625 13.175781 12.722656 13.175781 12.714844 C 13.175781 12.707031 13.171875 12.699219 13.164062 12.699219 C 13.160156 12.699219 13.136719 12.664062 13.113281 12.621094 C 13.09375 12.578125 13.0625 12.527344 13.046875 12.507812 C 13.035156 12.484375 13.019531 12.457031 13.015625 12.449219 C 13.011719 12.433594 13.003906 12.425781 13 12.425781 C 12.992188 12.425781 12.988281 12.421875 12.988281 12.414062 C 12.988281 12.40625 12.953125 12.34375 12.914062 12.269531 C 12.871094 12.199219 12.835938 12.132812 12.835938 12.125 C 12.835938 12.117188 12.832031 12.113281 12.824219 12.113281 C 12.820312 12.113281 12.8125 12.105469 12.8125 12.097656 C 12.8125 12.089844 12.804688 12.074219 12.796875 12.0625 C 12.78125 12.046875 12.746094 11.988281 12.667969 11.835938 C 12.652344 11.8125 12.640625 11.792969 12.636719 11.789062 C 12.625 11.773438 12.550781 11.652344 12.5 11.554688 C 12.472656 11.5 12.441406 11.449219 12.429688 11.4375 C 12.421875 11.425781 12.414062 11.414062 12.414062 11.410156 C 12.414062 11.402344 12.308594 11.214844 12.273438 11.164062 C 12.265625 11.152344 12.257812 11.132812 12.25 11.117188 C 12.242188 11.105469 12.226562 11.078125 12.210938 11.054688 C 12.199219 11.035156 12.160156 10.972656 12.128906 10.914062 C 12.042969 10.757812 12.027344 10.734375 12.015625 10.710938 C 12.011719 10.703125 12.003906 10.691406 12 10.6875 C 11.996094 10.683594 11.976562 10.648438 11.953125 10.613281 C 11.878906 10.472656 11.847656 10.417969 11.828125 10.398438 C 11.820312 10.390625 11.8125 10.375 11.8125 10.371094 C 11.8125 10.367188 11.800781 10.339844 11.785156 10.316406 C 11.765625 10.289062 11.738281 10.238281 11.714844 10.199219 C 11.640625 10.058594 11.609375 10.007812 11.601562 9.992188 C 11.59375 9.984375 11.558594 9.925781 11.519531 9.855469 C 11.480469 9.789062 11.445312 9.722656 11.4375 9.710938 C 11.429688 9.703125 11.421875 9.683594 11.417969 9.671875 C 11.414062 9.660156 11.40625 9.648438 11.402344 9.648438 C 11.394531 9.648438 11.382812 9.628906 11.367188 9.601562 C 11.347656 9.558594 11.152344 9.21875 11.089844 9.113281 C 11.078125 9.089844 11.050781 9.042969 11.035156 9.011719 C 11.019531 8.980469 10.996094 8.945312 10.984375 8.933594 C 10.972656 8.921875 10.957031 8.890625 10.949219 8.871094 C 10.941406 8.847656 10.929688 8.828125 10.925781 8.824219 C 10.917969 8.820312 10.90625 8.796875 10.859375 8.714844 C 10.847656 8.691406 10.824219 8.652344 10.8125 8.632812 C 10.789062 8.597656 10.6875 8.417969 10.664062 8.375 C 10.660156 8.363281 10.648438 8.34375 10.640625 8.332031 C 10.632812 8.316406 10.621094 8.296875 10.617188 8.289062 C 10.609375 8.277344 10.597656 8.257812 10.585938 8.246094 C 10.574219 8.230469 10.5625 8.214844 10.5625 8.207031 C 10.5625 8.203125 10.527344 8.140625 10.488281 8.066406 C 10.445312 7.996094 10.414062 7.933594 10.414062 7.925781 C 10.414062 7.917969 10.410156 7.914062 10.402344 7.914062 C 10.394531 7.914062 10.371094 7.878906 10.3125 7.769531 C 10.257812 7.667969 10.210938 7.582031 10.195312 7.566406 C 10.175781 7.539062 10.011719 7.246094 10.011719 7.234375 C 10.011719 7.230469 10.007812 7.226562 10.003906 7.222656 C 9.996094 7.21875 9.980469 7.195312 9.964844 7.167969 L 9.9375 7.113281 L 9.9375 2.128906 L 9.96875 2.09375 C 10.023438 2.03125 10.082031 1.921875 10.113281 1.835938 C 10.148438 1.726562 10.160156 1.414062 10.132812 1.277344 C 10.082031 1.039062 9.929688 0.878906 9.707031 0.820312 C 9.640625 0.800781 9.433594 0.800781 8.042969 0.800781 C 6.765625 0.800781 6.441406 0.804688 6.382812 0.820312 Z M 9.613281 1.335938 C 9.632812 1.359375 9.636719 1.386719 9.636719 1.507812 C 9.636719 1.605469 9.632812 1.664062 9.617188 1.695312 C 9.59375 1.753906 9.527344 1.820312 9.46875 1.835938 L 9.425781 1.851562 L 9.425781 7.25 L 9.476562 7.347656 C 9.507812 7.398438 9.53125 7.445312 9.539062 7.449219 C 9.542969 7.453125 9.558594 7.484375 9.574219 7.515625 C 9.59375 7.546875 9.640625 7.628906 9.679688 7.695312 C 9.71875 7.761719 9.75 7.820312 9.75 7.824219 C 9.75 7.828125 9.757812 7.839844 9.769531 7.851562 C 9.777344 7.859375 9.789062 7.875 9.789062 7.890625 C 9.789062 7.902344 9.792969 7.914062 9.796875 7.914062 C 9.804688 7.914062 9.824219 7.941406 9.886719 8.054688 C 9.90625 8.089844 9.933594 8.140625 9.949219 8.164062 C 9.960938 8.1875 9.980469 8.214844 9.984375 8.226562 C 9.988281 8.234375 10.019531 8.285156 10.050781 8.335938 C 10.082031 8.390625 10.121094 8.457031 10.136719 8.488281 C 10.179688 8.566406 10.191406 8.585938 10.226562 8.644531 C 10.246094 8.671875 10.273438 8.722656 10.292969 8.757812 C 10.3125 8.792969 10.335938 8.835938 10.351562 8.855469 C 10.363281 8.875 10.378906 8.902344 10.382812 8.910156 C 10.386719 8.921875 10.425781 8.988281 10.46875 9.0625 C 10.511719 9.136719 10.550781 9.203125 10.554688 9.214844 C 10.558594 9.222656 10.578125 9.253906 10.59375 9.28125 C 10.609375 9.308594 10.628906 9.339844 10.632812 9.351562 C 10.640625 9.359375 10.675781 9.421875 10.714844 9.492188 C 10.753906 9.558594 10.789062 9.617188 10.789062 9.621094 C 10.789062 9.621094 10.804688 9.652344 10.828125 9.691406 C 10.851562 9.726562 10.882812 9.78125 10.898438 9.816406 C 10.917969 9.847656 10.933594 9.875 10.941406 9.875 C 10.945312 9.875 10.949219 9.878906 10.949219 9.886719 C 10.949219 9.894531 11.148438 10.25 11.171875 10.28125 C 11.183594 10.296875 11.199219 10.328125 11.246094 10.410156 C 11.265625 10.441406 11.292969 10.492188 11.3125 10.523438 C 11.328125 10.554688 11.347656 10.589844 11.355469 10.601562 C 11.359375 10.609375 11.375 10.636719 11.386719 10.65625 C 11.402344 10.675781 11.417969 10.703125 11.421875 10.710938 C 11.425781 10.722656 11.4375 10.746094 11.449219 10.761719 C 11.460938 10.78125 11.492188 10.832031 11.515625 10.878906 C 11.578125 10.992188 11.59375 11.015625 11.601562 11.023438 C 11.609375 11.03125 11.65625 11.113281 11.730469 11.25 C 11.75 11.289062 11.769531 11.320312 11.777344 11.324219 C 11.78125 11.324219 11.789062 11.332031 11.789062 11.335938 C 11.789062 11.34375 11.824219 11.410156 11.867188 11.484375 C 11.910156 11.558594 11.949219 11.628906 11.953125 11.636719 C 11.957031 11.648438 11.972656 11.671875 11.988281 11.695312 C 12 11.714844 12.019531 11.746094 12.027344 11.761719 C 12.085938 11.867188 12.132812 11.949219 12.160156 11.988281 C 12.171875 12.015625 12.1875 12.042969 12.1875 12.046875 C 12.1875 12.054688 12.191406 12.0625 12.199219 12.066406 C 12.203125 12.066406 12.234375 12.117188 12.269531 12.179688 C 12.300781 12.242188 12.332031 12.296875 12.335938 12.300781 C 12.339844 12.304688 12.351562 12.324219 12.363281 12.34375 C 12.375 12.363281 12.417969 12.4375 12.453125 12.503906 C 12.492188 12.570312 12.523438 12.628906 12.523438 12.636719 C 12.523438 12.644531 12.53125 12.648438 12.535156 12.648438 C 12.542969 12.648438 12.550781 12.664062 12.554688 12.679688 C 12.558594 12.699219 12.570312 12.710938 12.574219 12.710938 C 12.582031 12.710938 12.585938 12.722656 12.585938 12.730469 C 12.585938 12.742188 12.59375 12.75 12.601562 12.75 C 12.609375 12.75 12.613281 12.757812 12.613281 12.765625 C 12.613281 12.773438 12.683594 12.898438 12.792969 13.089844 C 12.8125 13.117188 12.839844 13.167969 12.886719 13.257812 C 12.910156 13.296875 12.933594 13.332031 12.9375 13.335938 C 12.941406 13.339844 12.953125 13.367188 12.96875 13.394531 C 12.984375 13.421875 12.996094 13.445312 13 13.449219 C 13.007812 13.457031 13.035156 13.503906 13.128906 13.675781 C 13.148438 13.710938 13.171875 13.746094 13.175781 13.746094 C 13.183594 13.75 13.1875 13.757812 13.1875 13.765625 C 13.1875 13.769531 13.214844 13.816406 13.246094 13.871094 C 13.277344 13.925781 13.308594 13.980469 13.3125 13.992188 C 13.320312 14.007812 13.335938 14.035156 13.351562 14.054688 C 13.363281 14.078125 13.378906 14.105469 13.386719 14.117188 C 13.394531 14.132812 13.40625 14.152344 13.414062 14.164062 C 13.449219 14.21875 13.585938 14.464844 13.585938 14.476562 C 13.585938 14.484375 13.59375 14.488281 13.597656 14.488281 C 13.605469 14.488281 13.617188 14.503906 13.625 14.523438 C 13.632812 14.546875 13.660156 14.59375 13.683594 14.632812 L 13.722656 14.699219 L 2.277344 14.699219 L 2.316406 14.632812 C 2.339844 14.59375 2.367188 14.546875 2.375 14.523438 C 2.382812 14.503906 2.394531 14.488281 2.402344 14.488281 C 2.40625 14.488281 2.414062 14.484375 2.414062 14.476562 C 2.414062 14.464844 2.550781 14.21875 2.585938 14.164062 C 2.59375 14.152344 2.605469 14.132812 2.613281 14.117188 C 2.621094 14.105469 2.636719 14.078125 2.648438 14.054688 C 2.664062 14.035156 2.679688 14.007812 2.6875 13.992188 C 2.691406 13.980469 2.722656 13.925781 2.753906 13.871094 C 2.785156 13.816406 2.8125 13.769531 2.8125 13.765625 C 2.8125 13.757812 2.816406 13.75 2.824219 13.746094 C 2.828125 13.746094 2.851562 13.710938 2.871094 13.675781 C 2.964844 13.503906 2.992188 13.457031 3 13.449219 C 3.003906 13.445312 3.015625 13.421875 3.03125 13.394531 C 3.046875 13.367188 3.058594 13.339844 3.0625 13.335938 C 3.066406 13.332031 3.089844 13.296875 3.113281 13.257812 C 3.160156 13.167969 3.1875 13.117188 3.207031 13.089844 C 3.316406 12.898438 3.386719 12.773438 3.386719 12.765625 C 3.386719 12.757812 3.394531 12.75 3.398438 12.75 C 3.40625 12.75 3.414062 12.742188 3.414062 12.730469 C 3.414062 12.722656 3.417969 12.710938 3.425781 12.710938 C 3.429688 12.710938 3.441406 12.699219 3.445312 12.679688 C 3.449219 12.664062 3.457031 12.648438 3.464844 12.648438 C 3.46875 12.648438 3.476562 12.644531 3.476562 12.636719 C 3.476562 12.628906 3.507812 12.570312 3.546875 12.503906 C 3.582031 12.4375 3.625 12.363281 3.636719 12.34375 C 3.648438 12.324219 3.660156 12.304688 3.664062 12.300781 C 3.667969 12.296875 3.699219 12.242188 3.730469 12.179688 C 3.765625 12.117188 3.796875 12.066406 3.800781 12.066406 C 3.808594 12.0625 3.8125 12.054688 3.8125 12.046875 C 3.8125 12.042969 3.828125 12.015625 3.839844 11.988281 C 3.867188 11.949219 3.914062 11.867188 3.972656 11.761719 C 3.980469 11.746094 4 11.714844 4.011719 11.695312 C 4.027344 11.671875 4.042969 11.648438 4.046875 11.636719 C 4.050781 11.628906 4.089844 11.558594 4.132812 11.484375 C 4.175781 11.410156 4.210938 11.34375 4.210938 11.335938 C 4.210938 11.332031 4.21875 11.324219 4.222656 11.324219 C 4.230469 11.320312 4.25 11.289062 4.269531 11.25 C 4.34375 11.113281 4.390625 11.03125 4.398438 11.023438 C 4.40625 11.015625 4.421875 10.992188 4.484375 10.878906 C 4.507812 10.832031 4.539062 10.78125 4.550781 10.761719 C 4.5625 10.746094 4.574219 10.722656 4.578125 10.710938 C 4.582031 10.703125 4.597656 10.675781 4.613281 10.65625 C 4.625 10.636719 4.640625 10.609375 4.644531 10.601562 C 4.652344 10.589844 4.671875 10.554688 4.6875 10.523438 C 4.707031 10.492188 4.734375 10.441406 4.753906 10.410156 C 4.800781 10.328125 4.816406 10.296875 4.828125 10.28125 C 4.851562 10.25 5.050781 9.894531 5.050781 9.886719 C 5.050781 9.878906 5.054688 9.875 5.058594 9.875 C 5.066406 9.875 5.082031 9.847656 5.101562 9.816406 C 5.117188 9.78125 5.148438 9.726562 5.171875 9.691406 C 5.195312 9.652344 5.210938 9.621094 5.210938 9.621094 C 5.210938 9.617188 5.246094 9.558594 5.285156 9.492188 C 5.324219 9.421875 5.359375 9.359375 5.367188 9.351562 C 5.371094 9.339844 5.390625 9.308594 5.40625 9.28125 C 5.421875 9.253906 5.441406 9.222656 5.445312 9.214844 C 5.449219 9.203125 5.488281 9.136719 5.53125 9.0625 C 5.574219 8.988281 5.613281 8.921875 5.617188 8.910156 C 5.621094 8.902344 5.636719 8.875 5.648438 8.855469 C 5.664062 8.835938 5.6875 8.792969 5.707031 8.757812 C 5.726562 8.722656 5.753906 8.671875 5.773438 8.644531 C 5.808594 8.585938 5.820312 8.566406 5.863281 8.488281 C 5.878906 8.457031 5.917969 8.390625 5.949219 8.335938 C 5.980469 8.285156 6.011719 8.234375 6.015625 8.226562 C 6.019531 8.214844 6.039062 8.1875 6.050781 8.164062 C 6.066406 8.140625 6.09375 8.089844 6.113281 8.054688 C 6.175781 7.941406 6.195312 7.914062 6.203125 7.914062 C 6.207031 7.914062 6.210938 7.902344 6.210938 7.890625 C 6.210938 7.875 6.222656 7.859375 6.230469 7.851562 C 6.242188 7.839844 6.25 7.828125 6.25 7.824219 C 6.25 7.820312 6.285156 7.757812 6.324219 7.691406 C 6.363281 7.625 6.410156 7.542969 6.425781 7.511719 C 6.445312 7.480469 6.460938 7.453125 6.464844 7.449219 C 6.46875 7.445312 6.472656 7.433594 6.480469 7.421875 C 6.484375 7.410156 6.515625 7.355469 6.546875 7.300781 L 6.613281 7.199219 L 6.613281 1.851562 L 6.574219 1.84375 C 6.515625 1.832031 6.417969 1.746094 6.390625 1.683594 C 6.367188 1.640625 6.363281 1.605469 6.363281 1.507812 C 6.363281 1.394531 6.363281 1.382812 6.390625 1.355469 C 6.410156 1.339844 6.445312 1.324219 6.46875 1.320312 C 6.496094 1.3125 6.523438 1.308594 6.53125 1.304688 C 6.539062 1.304688 7.230469 1.300781 8.066406 1.304688 L 9.589844 1.304688 Z M 9.613281 1.335938 "/>
<path style=" stroke:none;fill-rule:nonzero;fill:#2e3436;fill-opacity:1;" d="M 8.402344 5.042969 C 8.34375 5.058594 8.253906 5.144531 8.222656 5.210938 C 8.207031 5.242188 8.191406 5.304688 8.191406 5.34375 C 8.183594 5.410156 8.191406 5.433594 8.222656 5.503906 C 8.269531 5.597656 8.328125 5.652344 8.410156 5.679688 C 8.570312 5.734375 8.746094 5.667969 8.820312 5.519531 C 8.847656 5.460938 8.851562 5.433594 8.851562 5.359375 C 8.851562 5.277344 8.847656 5.253906 8.816406 5.199219 C 8.773438 5.121094 8.699219 5.058594 8.632812 5.039062 C 8.570312 5.023438 8.457031 5.023438 8.402344 5.042969 Z M 8.402344 5.042969 "/>
<path style=" stroke:none;fill-rule:nonzero;fill:#2e3436;fill-opacity:1;" d="M 8.824219 6.148438 C 8.699219 6.207031 8.625 6.324219 8.625 6.464844 C 8.625 6.53125 8.632812 6.558594 8.667969 6.625 C 8.730469 6.75 8.835938 6.808594 8.984375 6.796875 C 9.164062 6.785156 9.289062 6.648438 9.289062 6.460938 C 9.285156 6.328125 9.21875 6.21875 9.105469 6.160156 C 9.03125 6.121094 8.898438 6.117188 8.824219 6.148438 Z M 8.824219 6.148438 "/>
<path style=" stroke:none;fill-rule:nonzero;fill:#2e3436;fill-opacity:1;" d="M 7.617188 6.796875 C 7.515625 6.835938 7.425781 6.90625 7.367188 6.996094 C 7.304688 7.089844 7.289062 7.136719 7.277344 7.257812 C 7.261719 7.488281 7.410156 7.703125 7.652344 7.78125 C 7.804688 7.835938 7.957031 7.820312 8.109375 7.738281 C 8.207031 7.6875 8.277344 7.609375 8.328125 7.503906 C 8.367188 7.421875 8.367188 7.410156 8.367188 7.28125 C 8.367188 7.15625 8.367188 7.136719 8.332031 7.070312 C 8.265625 6.9375 8.15625 6.839844 8.015625 6.789062 C 7.90625 6.75 7.722656 6.753906 7.617188 6.796875 Z M 7.617188 6.796875 "/>
<path style=" stroke:none;fill-rule:nonzero;fill:rgb(0%,0%,0%);fill-opacity:1;" d="M 6.71875 7.675781 C 6.648438 7.703125 6.582031 7.757812 6.542969 7.816406 C 6.511719 7.871094 6.507812 7.894531 6.503906 7.984375 C 6.5 8.0625 6.503906 8.097656 6.519531 8.140625 C 6.582031 8.273438 6.675781 8.332031 6.832031 8.332031 C 6.945312 8.328125 7.003906 8.308594 7.070312 8.234375 C 7.140625 8.160156 7.15625 8.117188 7.15625 8 C 7.15625 7.882812 7.140625 7.839844 7.070312 7.765625 C 7.011719 7.699219 6.945312 7.671875 6.84375 7.667969 C 6.796875 7.664062 6.738281 7.667969 6.71875 7.675781 Z M 6.71875 7.675781 "/>
<path style=" stroke:none;fill-rule:nonzero;fill:rgb(0%,0%,0%);fill-opacity:1;" d="M 8.578125 7.792969 C 8.449219 7.839844 8.335938 7.941406 8.277344 8.058594 C 8.246094 8.125 8.242188 8.140625 8.242188 8.289062 C 8.242188 8.433594 8.246094 8.449219 8.28125 8.511719 C 8.324219 8.597656 8.4375 8.710938 8.515625 8.75 C 8.828125 8.898438 9.1875 8.765625 9.300781 8.457031 C 9.320312 8.414062 9.324219 8.359375 9.324219 8.277344 C 9.324219 8.175781 9.320312 8.152344 9.289062 8.078125 C 9.226562 7.941406 9.109375 7.835938 8.964844 7.785156 C 8.863281 7.75 8.683594 7.753906 8.578125 7.792969 Z M 8.578125 7.792969 "/>
<path style=" stroke:none;fill-rule:nonzero;fill:rgb(0%,0%,0%);fill-opacity:1;" d="M 7.445312 8.414062 C 7.238281 8.515625 7.1875 8.78125 7.339844 8.949219 C 7.417969 9.03125 7.46875 9.050781 7.589844 9.050781 C 7.683594 9.050781 7.703125 9.046875 7.757812 9.011719 C 7.949219 8.902344 7.980469 8.625 7.820312 8.476562 C 7.789062 8.449219 7.742188 8.417969 7.71875 8.40625 C 7.652344 8.378906 7.507812 8.382812 7.445312 8.414062 Z M 7.445312 8.414062 "/>
<path style=" stroke:none;fill-rule:nonzero;fill:#2e3436;fill-opacity:1;" d="M 5.867188 9.371094 C 5.835938 9.429688 5.804688 9.484375 5.796875 9.484375 C 5.792969 9.488281 5.789062 9.496094 5.789062 9.507812 C 5.789062 9.515625 5.78125 9.53125 5.773438 9.542969 C 5.765625 9.550781 5.722656 9.625 5.671875 9.710938 C 5.625 9.796875 5.570312 9.890625 5.554688 9.917969 C 5.539062 9.945312 5.507812 10.007812 5.480469 10.054688 C 5.457031 10.101562 5.417969 10.167969 5.394531 10.203125 C 5.371094 10.238281 5.320312 10.328125 5.28125 10.398438 C 5.242188 10.472656 5.207031 10.535156 5.203125 10.539062 C 5.199219 10.542969 5.183594 10.566406 5.167969 10.59375 C 5.15625 10.621094 5.109375 10.703125 5.066406 10.777344 C 5.023438 10.851562 4.988281 10.917969 4.988281 10.925781 C 4.988281 10.933594 4.984375 10.9375 4.976562 10.9375 C 4.96875 10.9375 4.960938 10.945312 4.960938 10.949219 C 4.960938 10.957031 4.929688 11.019531 4.886719 11.09375 C 4.847656 11.164062 4.8125 11.230469 4.8125 11.234375 C 4.8125 11.242188 4.808594 11.25 4.800781 11.25 C 4.792969 11.25 4.789062 11.257812 4.789062 11.269531 C 4.789062 11.277344 4.78125 11.289062 4.777344 11.289062 C 4.769531 11.289062 4.757812 11.304688 4.75 11.328125 C 4.742188 11.355469 4.734375 11.375 4.726562 11.378906 C 4.722656 11.378906 4.695312 11.421875 4.671875 11.476562 C 4.644531 11.527344 4.613281 11.578125 4.605469 11.585938 C 4.597656 11.597656 4.574219 11.640625 4.550781 11.679688 C 4.453125 11.859375 4.414062 11.925781 4.378906 11.980469 C 4.371094 11.996094 4.359375 12.015625 4.355469 12.023438 C 4.34375 12.046875 4.230469 12.246094 4.210938 12.273438 C 4.203125 12.285156 4.195312 12.304688 4.191406 12.316406 C 4.1875 12.328125 4.179688 12.335938 4.171875 12.335938 C 4.167969 12.335938 4.164062 12.34375 4.164062 12.351562 C 4.164062 12.359375 4.128906 12.421875 4.085938 12.496094 C 4.046875 12.566406 4.011719 12.632812 4.011719 12.640625 C 4.011719 12.644531 4.007812 12.648438 4 12.648438 C 3.996094 12.648438 3.988281 12.660156 3.984375 12.671875 C 3.980469 12.683594 3.957031 12.726562 3.929688 12.769531 C 3.90625 12.808594 3.867188 12.878906 3.847656 12.917969 C 3.824219 12.957031 3.800781 13 3.792969 13.011719 C 3.78125 13.03125 3.710938 13.152344 3.664062 13.230469 C 3.648438 13.257812 3.632812 13.296875 3.625 13.316406 C 3.617188 13.335938 3.605469 13.351562 3.601562 13.351562 C 3.59375 13.351562 3.585938 13.359375 3.582031 13.371094 C 3.578125 13.382812 3.566406 13.40625 3.558594 13.417969 C 3.550781 13.433594 3.515625 13.496094 3.476562 13.5625 C 3.441406 13.628906 3.398438 13.703125 3.386719 13.726562 C 3.34375 13.796875 3.234375 13.992188 3.21875 14.019531 C 3.210938 14.039062 3.203125 14.050781 3.199219 14.050781 C 3.191406 14.050781 3.1875 14.054688 3.1875 14.0625 C 3.1875 14.070312 3.167969 14.109375 3.144531 14.148438 C 3.121094 14.1875 3.101562 14.230469 3.101562 14.234375 C 3.101562 14.246094 4.496094 14.25 8 14.25 C 11.054688 14.25 12.898438 14.246094 12.898438 14.238281 C 12.898438 14.230469 12.894531 14.222656 12.890625 14.21875 C 12.886719 14.214844 12.863281 14.179688 12.84375 14.140625 C 12.824219 14.101562 12.796875 14.058594 12.785156 14.046875 C 12.773438 14.03125 12.761719 14.015625 12.761719 14.011719 C 12.761719 14.003906 12.730469 13.941406 12.6875 13.867188 C 12.644531 13.792969 12.613281 13.730469 12.613281 13.722656 C 12.613281 13.71875 12.609375 13.710938 12.601562 13.710938 C 12.597656 13.710938 12.566406 13.660156 12.53125 13.597656 C 12.5 13.535156 12.453125 13.453125 12.429688 13.417969 C 12.410156 13.382812 12.363281 13.304688 12.332031 13.242188 C 12.296875 13.179688 12.265625 13.128906 12.265625 13.125 C 12.257812 13.121094 12.242188 13.09375 12.226562 13.0625 C 12.207031 13.027344 12.167969 12.957031 12.132812 12.898438 C 12.101562 12.839844 12.070312 12.785156 12.0625 12.769531 C 12.054688 12.761719 12.042969 12.738281 12.039062 12.726562 C 12.03125 12.714844 12.019531 12.699219 12.015625 12.6875 C 12.011719 12.675781 12.003906 12.667969 12 12.664062 C 11.996094 12.660156 11.976562 12.628906 11.957031 12.59375 C 11.941406 12.558594 11.902344 12.488281 11.871094 12.433594 C 11.839844 12.378906 11.8125 12.332031 11.8125 12.328125 C 11.8125 12.328125 11.804688 12.316406 11.800781 12.308594 C 11.792969 12.300781 11.753906 12.234375 11.714844 12.164062 C 11.609375 11.976562 11.585938 11.933594 11.574219 11.917969 C 11.570312 11.910156 11.546875 11.871094 11.523438 11.832031 C 11.460938 11.710938 11.4375 11.671875 11.414062 11.632812 C 11.359375 11.550781 11.289062 11.414062 11.289062 11.398438 C 11.289062 11.394531 11.28125 11.386719 11.277344 11.386719 C 11.269531 11.386719 11.257812 11.371094 11.25 11.351562 C 11.234375 11.316406 11.214844 11.277344 11.191406 11.253906 C 11.183594 11.242188 11.175781 11.230469 11.175781 11.226562 C 11.175781 11.21875 11.140625 11.152344 11.09375 11.074219 C 11.046875 10.996094 11.011719 10.929688 11.011719 10.921875 C 11.011719 10.917969 11.007812 10.914062 11.003906 10.914062 C 10.996094 10.914062 10.984375 10.894531 10.976562 10.875 C 10.96875 10.855469 10.925781 10.78125 10.886719 10.710938 C 10.847656 10.640625 10.8125 10.578125 10.8125 10.570312 C 10.8125 10.566406 10.800781 10.550781 10.789062 10.535156 C 10.777344 10.523438 10.75 10.484375 10.734375 10.445312 C 10.714844 10.410156 10.683594 10.351562 10.664062 10.320312 C 10.640625 10.285156 10.617188 10.242188 10.609375 10.226562 C 10.597656 10.207031 10.570312 10.15625 10.542969 10.113281 C 10.519531 10.066406 10.492188 10.019531 10.484375 10.007812 C 10.480469 9.992188 10.464844 9.964844 10.449219 9.945312 C 10.4375 9.921875 10.421875 9.894531 10.414062 9.882812 C 10.40625 9.867188 10.394531 9.847656 10.386719 9.835938 C 10.371094 9.8125 10.257812 9.613281 10.246094 9.585938 C 10.242188 9.578125 10.226562 9.546875 10.210938 9.523438 C 10.195312 9.5 10.164062 9.445312 10.140625 9.398438 C 10.113281 9.355469 10.089844 9.308594 10.082031 9.296875 C 10.070312 9.277344 9.902344 9.277344 8 9.265625 L 5.929688 9.257812 Z M 5.867188 9.371094 "/>
</g>
</svg>
