<?xml version="1.0" encoding="utf-8"?>
<svg height="16px" viewBox="0 0 16 16" width="16px" xmlns="http://www.w3.org/2000/svg">
  <path d="M 1.045 5.64 C 0.494 5.64 0.023 5.926 0.002 6.434 L -0.004 9.997 C 0.026 10.457 0.433 10.735 0.971 10.735 C 1.492 10.736 2.036 10.426 2.008 9.964 L 2.002 6.434 C 1.938 5.948 1.596 5.64 1.045 5.64 Z" fill="#2e3436" style="stroke-width: 1;"/>
  <path d="M 7.504 3.717 C 6.953 3.717 6.547 4.041 6.525 4.706 L 6.498 11.801 C 6.507 12.177 6.977 12.484 7.515 12.485 C 8.036 12.486 8.474 12.115 8.467 11.775 L 8.483 4.663 C 8.44 4.019 8.055 3.717 7.504 3.717 Z" fill="#2e3436" style="stroke-width: 1;"/>
  <path d="M 4.011 1.1 C 3.46 1.1 3.011 1.553 3.011 2.109 L 3.005 14.015 C 3.014 14.62 3.484 14.909 4.022 14.91 C 4.543 14.911 4.981 14.52 4.974 13.973 L 5.011 2.109 C 5.011 1.553 4.562 1.1 4.011 1.1 Z" fill="#2e3436" style="stroke-width: 1;"/>
  <path d="M 15.041 5.585 C 14.49 5.585 14.019 5.871 13.998 6.379 L 13.992 9.942 C 14.022 10.402 14.429 10.68 14.967 10.68 C 15.488 10.681 16.032 10.371 16.004 9.909 L 15.998 6.379 C 15.934 5.893 15.592 5.585 15.041 5.585 Z" fill="#2e3436" style="stroke-width: 1;"/>
  <path d="M 11.023 1.033 C 10.472 1.033 10.023 1.486 10.023 2.042 L 10.017 13.948 C 10.026 14.553 10.496 14.842 11.034 14.843 C 11.555 14.844 11.993 14.453 11.986 13.906 L 12.023 2.042 C 12.023 1.486 11.574 1.033 11.023 1.033 Z" fill="#2e3436" style="stroke-width: 1;"/>
</svg>