<?xml version="1.0" encoding="UTF-8" standalone="no"?>
<!-- Created with Inkscape (http://www.inkscape.org/) -->

<svg
   width="128.00002"
   height="127.99999"
   viewBox="0 0 33.866671 33.866665"
   version="1.1"
   id="svg1"
   inkscape:version="1.3.2 (091e20ef0f, 2023-11-25)"
   sodipodi:docname="io.github.itprojects.MasVisGtk-symbolic.svg"
   xmlns:inkscape="http://www.inkscape.org/namespaces/inkscape"
   xmlns:sodipodi="http://sodipodi.sourceforge.net/DTD/sodipodi-0.dtd"
   xmlns="http://www.w3.org/2000/svg"
   xmlns:svg="http://www.w3.org/2000/svg">
  <sodipodi:namedview
     id="namedview1"
     pagecolor="#ffffff"
     bordercolor="currentColor"
     borderopacity="0.25"
     inkscape:showpageshadow="2"
     inkscape:pageopacity="0.0"
     inkscape:pagecheckerboard="0"
     inkscape:deskcolor="#d1d1d1"
     inkscape:document-units="px"
     inkscape:zoom="2.4889579"
     inkscape:cx="2.0088728"
     inkscape:cy="66.694578"
     inkscape:window-width="1920"
     inkscape:window-height="1043"
     inkscape:window-x="0"
     inkscape:window-y="0"
     inkscape:window-maximized="1"
     inkscape:current-layer="layer1"
     showgrid="false" />
  <defs
     id="defs1" />
  <g
     inkscape:label="Layer 1"
     inkscape:groupmode="layer"
     id="layer1"
     transform="translate(-32.279167,-138.64166)">
    <rect
       style="fill:#2e3436;fill-opacity:0;stroke:#000000;stroke-width:0.561226;stroke-dasharray:none;stroke-opacity:1"
       id="rect2"
       width="26.759735"
       height="26.644829"
       x="35.79163"
       y="142.22191"
       ry="1.6768146" />
    <path
       d="m 42.358873,164.88808 c 0.295195,0 0.511388,-0.20725 0.511388,-0.4689 v -11.39092 c 0,-0.26116 -0.216193,-0.46892 -0.511388,-0.46892 -0.288098,0 -0.503345,0.20776 -0.503345,0.46892 v 11.39092 c 0,0.26165 0.215247,0.4689 0.503345,0.4689 z m 4.189022,-1.33946 c 0.287627,0 0.503819,-0.21417 0.503819,-0.47534 v -8.69912 c 0,-0.26117 -0.216192,-0.47535 -0.503819,-0.47535 -0.288097,0 -0.511859,0.21418 -0.511859,0.47535 v 8.69912 c 0,0.26117 0.223762,0.47534 0.511859,0.47534 z m -6.275727,-1.08473 c 0.287153,0 0.503345,-0.20776 0.503345,-0.46892 v -6.54251 c 0,-0.26117 -0.216192,-0.46891 -0.503345,-0.46891 -0.295668,0 -0.511387,0.20774 -0.511387,0.46891 v 6.54251 c 0,0.26116 0.215719,0.46892 0.511387,0.46892 z m 4.181454,-0.72315 c 0.287624,0 0.51044,-0.20776 0.51044,-0.46893 v -5.0962 c 0,-0.26117 -0.222816,-0.4689 -0.51044,-0.4689 -0.288573,0 -0.503818,0.20773 -0.503818,0.4689 v 5.0962 c 0,0.26117 0.215245,0.46893 0.503818,0.46893 z m 4.188549,-1.19851 c 0.287625,0 0.503345,-0.21467 0.503345,-0.47584 v -2.68536 c 0,-0.26116 -0.21572,-0.47533 -0.503345,-0.47533 -0.295195,0 -0.510913,0.21417 -0.510913,0.47533 v 2.68536 c 0,0.26117 0.215718,0.47584 0.510913,0.47584 z m -10.46475,-0.52925 c 0.287625,0 0.503818,-0.20775 0.503818,-0.46892 v -1.6407 c 0,-0.26116 -0.216193,-0.46841 -0.503818,-0.46841 -0.294722,0 -0.510915,0.20725 -0.510915,0.46841 v 1.6407 c 0,0.26117 0.216193,0.46892 0.510915,0.46892 z"
       style="fill:#000000;stroke-width:0.48373"
       id="path1" />
    <path
       d="m 56.503612,152.59436 c -0.295195,0 -0.511389,0.20725 -0.511389,0.46892 v 11.39091 c 0,0.26117 0.216194,0.46891 0.511389,0.46891 0.288097,0 0.503343,-0.20774 0.503343,-0.46891 v -11.39091 c 0,-0.26167 -0.215246,-0.46892 -0.503343,-0.46892 z m -4.189025,1.33946 c -0.287624,0 -0.503816,0.21419 -0.503816,0.47535 v 8.69913 c 0,0.26117 0.216192,0.47533 0.503816,0.47533 0.2881,0 0.511862,-0.21416 0.511862,-0.47533 v -8.69913 c 0,-0.26116 -0.223762,-0.47535 -0.511862,-0.47535 z m 6.27573,1.08475 c -0.287153,0 -0.503345,0.20773 -0.503345,0.4689 v 6.54251 c 0,0.26117 0.216192,0.46892 0.503345,0.46892 0.295668,0 0.511386,-0.20775 0.511386,-0.46892 v -6.54251 c 0,-0.26117 -0.215718,-0.4689 -0.511386,-0.4689 z m -4.181454,0.72315 c -0.287626,0 -0.51044,0.20774 -0.51044,0.4689 v 5.09621 c 0,0.26117 0.222814,0.46892 0.51044,0.46892 0.288573,0 0.503818,-0.20775 0.503818,-0.46892 v -5.09621 c 0,-0.26116 -0.215245,-0.4689 -0.503818,-0.4689 z m -4.188549,1.19849 c -0.287627,0 -0.503345,0.21467 -0.503345,0.47584 v 2.68536 c 0,0.26116 0.215718,0.47535 0.503345,0.47535 0.295195,0 0.510913,-0.21419 0.510913,-0.47535 v -2.68536 c 0,-0.26117 -0.215718,-0.47584 -0.510913,-0.47584 z m 10.46475,0.52927 c -0.287625,0 -0.503818,0.20773 -0.503818,0.4689 v 1.64069 c 0,0.26117 0.216193,0.46842 0.503818,0.46842 0.294722,0 0.510915,-0.20725 0.510915,-0.46842 v -1.64069 c 0,-0.26117 -0.216193,-0.4689 -0.510915,-0.4689 z"
       style="fill:#000000;stroke-width:0.48373"
       id="path1-3" />
  </g>
</svg>
