<?xml version="1.0" encoding="utf-8"?>
<svg width="128.00002" height="127.99999" viewBox="0 0 33.866671 33.866665" version="1.1" id="svg1" xmlns="http://www.w3.org/2000/svg">
  <defs id="defs1">
    <linearGradient id="blueGradient" x1="0%" y1="0%" x2="0%" y2="100%">
      <stop offset="0" style="stop-color:#4a90e2;stop-opacity:1"/>
      <stop offset="1" style="stop-color:#2171b5;stop-opacity:1"/>
    </linearGradient>
    <filter id="glow" x="-50%" y="-50%" width="200%" height="200%">
      <feGaussianBlur stdDeviation="2" result="coloredBlur"/>
      <feMerge>
        <feMergeNode in="coloredBlur"/>
        <feMergeNode in="SourceGraphic"/>
      </feMerge>
    </filter>
    <linearGradient id="redGradient" x1="0%" y1="0%" x2="0%" y2="100%">
      <stop offset="0" style="stop-color:#e74c3c;stop-opacity:1"/>
      <stop offset="1" style="stop-color:#c0392b;stop-opacity:1"/>
    </linearGradient>
  </defs>
  <g id="layer1" transform="translate(-32.279167,-138.64166)">
    <rect style="fill:#f7ffba;fill-opacity:1;stroke:#8a8a84;stroke-width:0.561948;stroke-dasharray:none;stroke-opacity:1" id="rect2" width="26.411985" height="27.065121" x="35.986572" y="142.29286" ry="1.7032644"/>
    <path d="M 37.825 146.755 L 37.825 150.742 C 37.825 150.873 37.931 150.981 38.058 150.981 C 38.186 150.981 38.292 150.873 38.292 150.742 L 38.292 147.61 L 39.807 150.149 C 39.845 150.213 39.935 150.264 40.007 150.264 C 40.078 150.264 40.168 150.213 40.206 150.149 L 41.728 147.607 L 41.728 150.755 C 41.728 150.886 41.834 150.994 41.961 150.994 C 42.089 150.994 42.195 150.885 42.195 150.755 L 42.195 146.759 C 42.195 146.628 42.089 146.519 41.961 146.519 C 41.89 146.519 41.799 146.57 41.762 146.634 L 40.007 149.565 L 38.27 146.653 C 38.226 146.58 38.139 146.516 38.058 146.516 C 37.921 146.516 37.825 146.637 37.825 146.755 Z M 44.401 147.664 C 43.53 147.664 42.879 148.465 42.879 149.335 C 42.879 150.209 43.533 150.997 44.386 150.997 C 44.8 150.997 45.192 150.704 45.466 150.398 L 45.466 150.761 C 45.466 150.885 45.562 150.984 45.684 150.984 C 45.805 150.984 45.901 150.885 45.901 150.761 L 45.901 147.878 C 45.901 147.754 45.805 147.655 45.684 147.655 C 45.562 147.655 45.494 147.757 45.494 147.878 L 45.466 148.28 C 45.201 147.986 44.846 147.664 44.401 147.664 Z M 45.481 149.316 C 45.481 149.938 44.98 150.519 44.386 150.519 C 43.794 150.519 43.346 149.948 43.346 149.335 C 43.346 148.717 43.797 148.143 44.404 148.143 C 45.002 148.143 45.481 148.701 45.481 149.316 Z M 48.124 147.648 C 47.473 147.648 46.698 147.945 46.698 148.656 C 46.698 149.294 47.318 149.45 47.85 149.514 C 48.245 149.562 49.085 149.533 49.085 149.977 C 49.085 150.401 48.562 150.541 48.136 150.541 C 47.638 150.541 47.252 150.385 47.075 150.034 C 47.041 149.964 46.95 149.906 46.872 149.906 C 46.748 149.906 46.648 150.008 46.648 150.136 C 46.648 150.168 46.658 150.216 46.673 150.244 C 46.922 150.742 47.489 151.003 48.136 151.003 C 48.824 151.003 49.533 150.694 49.533 149.976 C 49.533 149.313 48.908 149.173 48.341 149.112 C 47.962 149.071 47.146 149.074 47.146 148.656 C 47.146 148.257 47.735 148.111 48.121 148.111 C 48.525 148.111 48.846 148.267 48.995 148.554 C 49.029 148.624 49.12 148.678 49.194 148.678 C 49.319 148.678 49.421 148.576 49.421 148.449 C 49.421 148.417 49.409 148.366 49.393 148.337 C 49.172 147.913 48.678 147.648 48.124 147.648 Z M 51.619 146.781 C 51.619 146.832 51.625 146.87 51.641 146.902 L 53.449 150.885 C 53.492 150.981 53.561 151.029 53.66 151.029 C 53.757 151.029 53.85 150.949 53.878 150.876 L 55.503 146.851 C 55.512 146.826 55.519 146.787 55.519 146.736 C 55.519 146.631 55.406 146.519 55.301 146.519 C 55.185 146.519 55.108 146.57 55.067 146.672 L 53.648 150.174 L 52.067 146.707 C 52.026 146.612 51.952 146.564 51.837 146.564 C 51.734 146.564 51.619 146.679 51.619 146.781 Z M 56.321 147.18 C 56.502 147.18 56.658 147.03 56.658 146.841 C 56.658 146.653 56.502 146.503 56.321 146.503 C 56.141 146.503 55.985 146.653 55.985 146.841 C 55.985 147.03 56.141 147.18 56.321 147.18 Z M 56.094 147.872 L 56.101 150.764 C 56.101 150.898 56.203 151.007 56.334 151.007 C 56.462 151.007 56.567 150.898 56.567 150.767 L 56.561 147.907 C 56.561 147.763 56.455 147.664 56.309 147.664 C 56.222 147.664 56.094 147.76 56.094 147.872 Z M 58.88 147.648 C 58.229 147.648 57.454 147.945 57.454 148.656 C 57.454 149.294 58.074 149.45 58.606 149.514 C 59.001 149.562 59.842 149.533 59.842 149.977 C 59.842 150.401 59.319 150.541 58.892 150.541 C 58.394 150.541 58.008 150.385 57.831 150.034 C 57.797 149.964 57.706 149.906 57.629 149.906 C 57.504 149.906 57.405 150.008 57.405 150.136 C 57.405 150.168 57.414 150.216 57.429 150.244 C 57.678 150.742 58.245 151.003 58.892 151.003 C 59.58 151.003 60.29 150.694 60.29 149.976 C 60.29 149.313 59.664 149.173 59.098 149.112 C 58.718 149.071 57.903 149.074 57.903 148.656 C 57.903 148.257 58.491 148.111 58.877 148.111 C 59.281 148.111 59.602 148.267 59.751 148.554 C 59.785 148.624 59.876 148.678 59.95 148.678 C 60.075 148.678 60.178 148.576 60.178 148.449 C 60.178 148.417 60.165 148.366 60.15 148.337 C 59.929 147.913 59.434 147.648 58.88 147.648 Z" id="text2" style="font-size:13px;white-space:pre;fill:#000000;fill-opacity:1;fill-rule:nonzero;stroke-width:0.496336" aria-label="Mas Vis"/>
    <path d="m 46.202759,166.3156 c 0,0.70066 0.480455,1.17121 1.151128,1.17121 0.272203,0 0.526371,-0.0824 0.732984,-0.16996 0.04264,-0.0171 0.07707,-0.0704 0.07707,-0.1185 v -0.002 l -0.0065,-0.86207 c 0,-0.0705 -0.05574,-0.12704 -0.122975,-0.12704 h -0.664113 c -0.06723,0 -0.122974,0.0583 -0.122974,0.12875 0,0.0705 0.05574,0.12875 0.122974,0.12875 h 0.54113 l 0.005,0.64398 c -0.160705,0.0602 -0.368952,0.11849 -0.573924,0.11849 -0.531291,0 -0.896963,-0.36921 -0.896963,-0.91876 0,-0.53408 0.38371,-0.97198 0.916639,-0.97198 0.232852,0 0.465699,0.0824 0.642797,0.21293 0.01797,0.0133 0.05083,0.0241 0.07214,0.0241 0.06723,0 0.122993,-0.0583 0.122993,-0.12875 0,-0.0378 -0.02459,-0.0858 -0.05411,-0.10653 -0.226289,-0.16825 -0.473897,-0.26103 -0.792015,-0.26103 -0.68379,0 -1.151129,0.57187 -1.151129,1.23818 z m 2.27602,-1.09907 c 0,0.0704 0.05574,0.12362 0.122975,0.12362 h 0.696908 v 2.02129 c 0,0.0705 0.05246,0.12875 0.119695,0.12875 0.06723,0 0.126273,-0.0585 0.126273,-0.12875 v -2.02129 h 0.698548 c 0.06886,0 0.124624,-0.0619 0.124624,-0.13387 0,-0.0704 -0.05576,-0.12363 -0.122974,-0.12363 h -1.641425 c -0.06888,0 -0.124624,0.0619 -0.124624,0.13388 z m 2.166155,2.08139 c 0,0.11849 0.02952,0.18723 0.119695,0.18723 0.06395,0 0.126273,-0.0515 0.126273,-0.12704 0.0017,-0.091 0.0033,-0.36063 0.0065,-0.80886 l 0.223011,-0.20435 1.026505,1.09736 c 0.02622,0.0275 0.05411,0.0395 0.08363,0.0395 0.0656,0 0.127904,-0.0619 0.127904,-0.13217 0,-0.0293 -0.0098,-0.06 -0.03608,-0.0875 l -1.016667,-1.08878 0.947797,-0.85349 c 0.02952,-0.0275 0.04099,-0.0619 0.04099,-0.0944 0,-0.0704 -0.05576,-0.13749 -0.121344,-0.13749 -0.02624,0 -0.05411,0.0114 -0.08198,0.0378 l -1.192122,1.08018 c -0.0017,-0.33316 -0.0017,-0.66631 -0.0033,-1.00118 0,-0.0704 -0.05739,-0.13046 -0.124624,-0.13046 -0.06886,0 -0.121344,0.0583 -0.121344,0.13046 l -0.0017,1.65205 c 0,0.21466 -0.0033,0.34517 -0.0033,0.44134 z" id="text3" style="font-size: 6.92423px; line-height: 11.0788px; text-anchor: middle; white-space: pre; fill-opacity: 1; stroke-width: 0.501767; fill: rgb(74, 144, 226);" aria-label="GTK"/>
    <g transform="matrix(0.068695, 0, 0, 0.079331, 37.190876, 150.734528)" style="">
      <rect x="0" y="80" width="18" height="40" rx="9" fill="url(#blueGradient)" filter="url(#glow)" opacity="0.8"/>
      <rect x="25" y="50" width="20" height="100" rx="10" fill="url(#blueGradient)" filter="url(#glow)"/>
      <rect x="52" y="25" width="22" height="150" rx="11" fill="url(#blueGradient)" filter="url(#glow)"/>
      <rect x="81" y="60" width="19" height="80" rx="9.5" fill="url(#blueGradient)" filter="url(#glow)" opacity="0.9"/>
      <rect x="107" y="35" width="21" height="130" rx="10.5" fill="url(#blueGradient)" filter="url(#glow)"/>
      <rect x="135" y="70" width="17" height="60" rx="8.5" fill="url(#blueGradient)" filter="url(#glow)" opacity="0.7"/>
      <circle cx="165" cy="100" r="4" fill="#95a5a6" opacity="0.4"/>
      <circle cx="175" cy="95" r="3" fill="#95a5a6" opacity="0.3"/>
      <circle cx="185" cy="105" r="3.5" fill="#95a5a6" opacity="0.3"/>
      <rect x="200" y="75" width="17" height="50" rx="8.5" fill="url(#redGradient)" filter="url(#glow)" opacity="0.8"/>
      <rect x="224" y="40" width="21" height="120" rx="10.5" fill="url(#redGradient)" filter="url(#glow)"/>
      <rect x="252" y="15" width="23" height="170" rx="11.5" fill="url(#redGradient)" filter="url(#glow)"/>
      <rect x="282" y="55" width="20" height="90" rx="10" fill="url(#redGradient)" filter="url(#glow)" opacity="0.9"/>
      <rect x="309" y="30" width="19" height="140" rx="9.5" fill="url(#redGradient)" filter="url(#glow)"/>
      <rect x="335" y="85" width="15" height="30" rx="7.5" fill="url(#redGradient)" filter="url(#glow)" opacity="0.6"/>
    </g>
  </g>
</svg>
